<svg width="41" height="24" viewBox="0 0 41 24" fill="none" xmlns="http://www.w3.org/2000/svg">
<g clip-path="url(#clip0_7_548)">
<path d="M11.5175 8.75604C11.5175 9.24395 11.5708 9.63956 11.6641 9.92967C11.7708 10.2198 11.9041 10.5363 12.0907 10.8791C12.1574 10.9846 12.184 11.0901 12.184 11.1824C12.184 11.3143 12.104 11.4461 11.9307 11.578L11.0909 12.1319C10.971 12.211 10.851 12.2505 10.7443 12.2505C10.611 12.2505 10.4777 12.1846 10.3444 12.0659C10.1578 11.8681 9.99783 11.6571 9.86452 11.4461C9.73122 11.222 9.59791 10.9714 9.45128 10.6681C8.4115 11.8813 7.10512 12.4879 5.53212 12.4879C4.41236 12.4879 3.51922 12.1714 2.86603 11.5385C2.21284 10.9055 1.87958 10.0615 1.87958 9.00659C1.87958 7.88571 2.27949 6.97582 3.09265 6.2901C3.90581 5.60439 4.98557 5.26153 6.35861 5.26153C6.81185 5.26153 7.27841 5.30109 7.77164 5.36703C8.26487 5.43296 8.77143 5.53846 9.30464 5.65714V4.6945C9.30464 3.6923 9.09136 2.9934 8.67811 2.58461C8.25154 2.17582 7.53169 1.97802 6.50525 1.97802C6.03868 1.97802 5.55878 2.03076 5.06556 2.14945C4.57233 2.26813 4.09243 2.41318 3.62587 2.5978C3.41258 2.6901 3.25261 2.74285 3.1593 2.76923C3.06599 2.7956 2.99934 2.80879 2.94601 2.80879C2.75939 2.80879 2.66607 2.67692 2.66607 2.4V1.75384C2.66607 1.54285 2.69274 1.38461 2.75939 1.2923C2.82604 1.2 2.94601 1.10769 3.13264 1.01538C3.59921 0.778017 4.15909 0.580215 4.81228 0.421973C5.46547 0.250545 6.15865 0.171424 6.89183 0.171424C8.47815 0.171424 9.6379 0.527467 10.3844 1.23956C11.1176 1.95164 11.4908 3.03296 11.4908 4.48351V8.75604H11.5175ZM6.10533 10.7604C6.54524 10.7604 6.99847 10.6813 7.47837 10.5231C7.95827 10.3648 8.38484 10.0747 8.74476 9.67912C8.95805 9.42857 9.11802 9.15164 9.198 8.83516C9.27798 8.51868 9.3313 8.13626 9.3313 7.68791V7.13406C8.94472 7.04175 8.53148 6.96263 8.1049 6.90989C7.67833 6.85714 7.26508 6.83076 6.85184 6.83076C5.9587 6.83076 5.30551 7.00219 4.8656 7.35824C4.4257 7.71428 4.21241 8.21538 4.21241 8.87472C4.21241 9.4945 4.37237 9.95604 4.70563 10.2725C5.02557 10.6022 5.49213 10.7604 6.10533 10.7604ZM16.8097 12.1846C16.5697 12.1846 16.4098 12.1451 16.3031 12.0527C16.1965 11.9736 16.1032 11.789 16.0232 11.5385L12.8905 1.34505C12.8106 1.08131 12.7706 0.909885 12.7706 0.817577C12.7706 0.606588 12.8772 0.487907 13.0905 0.487907H14.3969C14.6502 0.487907 14.8235 0.527468 14.9168 0.619775C15.0234 0.698896 15.1034 0.883512 15.1834 1.13406L17.4229 9.86373L19.5024 1.13406C19.5691 0.870325 19.6491 0.698896 19.7557 0.619775C19.8624 0.540654 20.049 0.487907 20.2889 0.487907H21.3554C21.6087 0.487907 21.7819 0.527468 21.8886 0.619775C21.9952 0.698896 22.0886 0.883512 22.1419 1.13406L24.2481 9.96922L26.5543 1.13406C26.6342 0.870325 26.7276 0.698896 26.8209 0.619775C26.9275 0.540654 27.1008 0.487907 27.3408 0.487907H28.5805C28.7938 0.487907 28.9137 0.593402 28.9137 0.817577C28.9137 0.883512 28.9004 0.949446 28.8871 1.02857C28.8738 1.10769 28.8471 1.21318 28.7938 1.35824L25.5811 11.5516C25.5011 11.8154 25.4078 11.9868 25.3012 12.0659C25.1945 12.145 25.0213 12.1978 24.7946 12.1978H23.6482C23.3949 12.1978 23.2216 12.1582 23.115 12.0659C23.0084 11.9736 22.915 11.8022 22.8617 11.5385L20.7955 3.03296L18.7426 11.5253C18.676 11.789 18.596 11.9604 18.4893 12.0527C18.3827 12.1451 18.1961 12.1846 17.9561 12.1846H16.8097ZM33.9393 12.5407C33.2461 12.5407 32.553 12.4615 31.8864 12.3033C31.2199 12.1451 30.7 11.9736 30.3534 11.7758C30.1401 11.6571 29.9935 11.5253 29.9402 11.4066C29.8869 11.2879 29.8602 11.156 29.8602 11.0374V10.3648C29.8602 10.0879 29.9669 9.95604 30.1668 9.95604C30.2468 9.95604 30.3268 9.96923 30.4068 9.9956C30.4867 10.022 30.6067 10.0747 30.74 10.1275C31.1933 10.3253 31.6865 10.4835 32.2064 10.589C32.7396 10.6945 33.2595 10.7472 33.7927 10.7472C34.6325 10.7472 35.2857 10.6022 35.7389 10.3121C36.1922 10.022 36.4321 9.59999 36.4321 9.05933C36.4321 8.6901 36.3121 8.38681 36.0722 8.13626C35.8323 7.88571 35.379 7.66153 34.7258 7.45054L32.7929 6.85714C31.8198 6.55384 31.0999 6.10549 30.66 5.51208C30.2201 4.93186 29.9935 4.28571 29.9935 3.59999C29.9935 3.04615 30.1135 2.55824 30.3534 2.13626C30.5934 1.71428 30.9133 1.34505 31.3132 1.05494C31.7131 0.751643 32.1664 0.527468 32.6996 0.369226C33.2328 0.210984 33.7927 0.14505 34.3792 0.14505C34.6725 0.14505 34.9791 0.158237 35.2724 0.197797C35.579 0.237358 35.8589 0.290105 36.1389 0.342852C36.4055 0.408786 36.6587 0.47472 36.8987 0.553841C37.1386 0.632962 37.3253 0.712083 37.4586 0.791204C37.6452 0.896698 37.7785 1.00219 37.8585 1.12087C37.9385 1.22637 37.9785 1.37142 37.9785 1.55604V2.17582C37.9785 2.45274 37.8718 2.5978 37.6719 2.5978C37.5652 2.5978 37.3919 2.54505 37.1653 2.43956C36.4055 2.0967 35.5523 1.92527 34.6059 1.92527C33.846 1.92527 33.2461 2.04395 32.8329 2.2945C32.4197 2.54505 32.2064 2.92747 32.2064 3.46813C32.2064 3.83736 32.3397 4.15384 32.6063 4.40439C32.8729 4.65494 33.3661 4.90549 34.0726 5.12967L35.9656 5.72307C36.9254 6.02637 37.6185 6.44835 38.0318 6.98901C38.445 7.52966 38.645 8.14945 38.645 8.83516C38.645 9.40219 38.525 9.91648 38.2984 10.3648C38.0584 10.8132 37.7385 11.2088 37.3253 11.5253C36.912 11.8549 36.4188 12.0923 35.8456 12.2637C35.2457 12.4483 34.6192 12.5407 33.9393 12.5407Z" fill="#252F3E"/>
<path fill-rule="evenodd" clip-rule="evenodd" d="M36.4588 18.9494C32.0731 22.1538 25.7011 23.8549 20.2223 23.8549C12.544 23.8549 5.62545 21.0461 0.399915 16.378C-0.0133291 16.0088 0.359924 15.5077 0.853151 15.7978C6.50527 19.0418 13.4771 21.0066 20.6889 21.0066C25.5545 21.0066 30.9 20.0044 35.8189 17.9472C36.5521 17.6176 37.1786 18.422 36.4588 18.9494Z" fill="#FF9900"/>
<path fill-rule="evenodd" clip-rule="evenodd" d="M38.2851 16.8923C37.7252 16.1802 34.5792 16.5495 33.1528 16.7209C32.7263 16.7736 32.6596 16.4044 33.0462 16.1275C35.5523 14.3868 39.6714 14.8879 40.1513 15.4681C40.6312 16.0615 40.018 20.1363 37.6719 22.0879C37.3119 22.3912 36.9654 22.233 37.1253 21.8374C37.6585 20.5319 38.845 17.5912 38.2851 16.8923Z" fill="#FF9900"/>
</g>
<defs>
<clipPath id="clip0_7_548">
<rect width="40.5246" height="24" fill="white"/>
</clipPath>
</defs>
</svg>
